<svg xmlns="http://www.w3.org/2000/svg" width="330" height="100" viewBox="0 0 330 100"><path d="M42.5 1.2l5 1.077v.949c12.425.718 21.7 3.067 22.45 5.902H70v2.363l5.385 53.23c.915 9.047-3.684 17.73-11.571 21.924l-.361.188L39.5 99 15.54 86.819C7.557 82.76 2.83 74.154 3.577 65.121l.038-.411L9 11.49V9.13h.048C9.795 6.294 19.071 3.944 31.5 3.226v-.949l5-1.077v1.831h.001v6h-.001V11.2l-5-1.111v-.86c-4.973.292-9.499.853-13.149 1.63-.603.13-1.176.263-1.718.4 3.58.91 8.274 1.874 13.676 2.436 2.922.2 6.017.305 9.192.305s6.27-.105 9.194-.305a96.349 96.349 0 0 0 13.674-2.436 46.8 46.8 0 0 0-1.56-.365c-3.673-.795-8.26-1.368-13.308-1.665v.86l-5 1.111v-10zM63.622 18s-10.593 4.2-24.316 4.2c-13.567 0-24.074-4.105-24.311-4.198L14.991 18 10.46 63.187c-.747 7.448 3.071 14.591 9.586 17.933L39.306 91l19.255-9.869c6.517-3.34 10.339-10.486 9.592-17.935L63.622 18zm-9.165 36.262c1.329.713 1.954 2.298 1.25 3.724C52.425 64.8 45.702 69 38.276 69c-2.267 0-4.378-.396-6.489-1.11-1.407-.475-2.11-2.06-1.641-3.486.469-1.426 2.032-2.14 3.44-1.664 1.485.555 3.126.793 4.69.793 5.394 0 10.24-3.09 12.586-8.004.625-1.347 2.267-1.901 3.596-1.267zM26.5 36a5.5 5.5 0 1 1 0 11 5.5 5.5 0 0 1 0-11zm24 0a5.5 5.5 0 1 1 0 11 5.5 5.5 0 0 1 0-11zm156.796 4v-4.312h-9.576V18.16h-4.48V40h14.056zm5.012-17.248c1.372 0 2.492-1.12 2.492-2.52a2.498 2.498 0 0 0-2.492-2.492c-1.4 0-2.52 1.12-2.52 2.492 0 1.4 1.12 2.52 2.52 2.52zM214.52 40V24.096h-4.424V40h4.424zm12.796 0l5.376-15.904h-4.676l-3.164 9.744-3.192-9.744h-4.648L222.388 40h4.928zm15.148.476c2.464 0 4.34-.84 5.936-2.352l-2.352-2.884c-1.036.952-2.212 1.4-3.612 1.4-1.96 0-3.584-1.372-3.696-3.164h10.836l.056-.7c.308-4.956-2.184-9.1-7.672-9.1-4.956 0-7.756 3.724-7.756 8.316 0 4.704 2.94 8.484 8.26 8.484zm2.772-10.136h-6.44c.168-1.568 1.456-2.94 3.192-2.94 1.82 0 3.248 1.232 3.248 2.94zM257.052 40v-8.4c0-2.632 1.96-3.78 4.312-3.584l.644.056v-4.34c-2.296-.252-3.892.504-4.956 2.016v-1.652H252.6V40h4.452zm11.76 5.264V39.3c.952.756 2.24 1.176 3.528 1.176 4.732 0 7.392-3.976 7.392-8.372 0-4.368-2.716-8.456-7.364-8.456-1.4 0-2.688.504-3.556 1.288v-.84h-4.424v21.168h4.424zm2.716-8.82c-1.288 0-2.744-.896-2.744-2.324v-4.116c0-1.484 1.68-2.24 2.828-2.24 2.268 0 3.612 2.184 3.612 4.34 0 2.352-1.344 4.34-3.696 4.34zm18.48 4.032c4.872 0 7.98-3.528 7.98-8.232 0-4.816-2.8-8.624-7.98-8.624-5.208 0-8.036 3.752-8.036 8.624 0 4.732 3.164 8.232 8.036 8.232zm0-3.892c-2.184 0-3.612-1.792-3.612-4.34 0-2.604 1.428-4.732 3.612-4.732 2.128 0 3.584 2.128 3.584 4.732 0 2.576-1.428 4.34-3.584 4.34zm18.256 3.892c4.872 0 7.98-3.528 7.98-8.232 0-4.816-2.8-8.624-7.98-8.624-5.208 0-8.036 3.752-8.036 8.624 0 4.732 3.164 8.232 8.036 8.232zm0-3.892c-2.184 0-3.612-1.792-3.612-4.34 0-2.604 1.428-4.732 3.612-4.732 2.128 0 3.584 2.128 3.584 4.732 0 2.576-1.428 4.34-3.584 4.34zm15.68 3.892c1.036 0 2.184-.168 3.136-.476l-.448-3.836a4.657 4.657 0 0 1-1.68.308c-.924 0-1.372-.504-1.372-1.456V18.16h-4.396v17.584c0 2.856 1.372 4.732 4.76 4.732zM112.286 89.5l9.66-32.76h-7.308l-7.224 24.78-7.266-24.78H92.84l9.66 32.76h9.786zm20.874 0V56.74h-6.804V89.5h6.804zm19.53.714c9.03 0 13.146-4.2 13.146-9.618 0-5.25-2.772-8.694-9.954-10.416l-4.158-1.008c-3.57-.84-4.998-1.89-4.998-3.57s1.89-3.024 5.418-3.024c3.108 0 5.88 1.428 7.476 3.654l5.586-4.284c-2.94-3.654-7.434-5.754-13.062-5.754-8.61 0-12.81 4.368-12.81 9.66 0 6.426 5.166 8.694 9.828 9.786l4.746 1.05c2.604.588 4.536 1.638 4.536 3.906 0 2.058-1.848 3.36-5.712 3.192-3.36-.126-6.888-1.848-8.946-4.746l-5.376 4.326c3.318 4.242 8.946 6.846 14.28 6.846zm33.096 0c10.416 0 15.792-7.266 15.792-16.926 0-9.786-5.25-17.136-15.792-17.136-10.626 0-15.75 7.266-15.75 17.094 0 9.66 5.376 16.968 15.75 16.968zm.042-6.384c-6.3 0-8.484-4.41-8.484-10.542 0-5.838 2.352-10.71 8.484-10.71 6.174 0 8.442 4.83 8.442 10.71 0 6.132-2.1 10.542-8.442 10.542zm28.308 5.67V77.362h4.326l7.182 12.138h8.106l-7.812-13.188c2.562-1.092 5.628-3.696 5.628-8.988 0-6.006-3.654-10.584-11.256-10.584h-13.482V89.5h7.308zm6.132-18.48l-6.132-.042v-7.854h6.132c2.52 0 4.158 1.554 4.158 3.948 0 2.352-1.638 3.948-4.158 3.948zm30.282 19.194c9.03 0 13.146-4.2 13.146-9.618 0-5.25-2.772-8.694-9.954-10.416l-4.158-1.008c-3.57-.84-4.998-1.89-4.998-3.57s1.89-3.024 5.418-3.024c3.108 0 5.88 1.428 7.476 3.654l5.586-4.284c-2.94-3.654-7.434-5.754-13.062-5.754-8.61 0-12.81 4.368-12.81 9.66 0 6.426 5.166 8.694 9.828 9.786l4.746 1.05c2.604.588 4.536 1.638 4.536 3.906 0 2.058-1.848 3.36-5.712 3.192-3.36-.126-6.888-1.848-8.946-4.746l-5.376 4.326c3.318 4.242 8.946 6.846 14.28 6.846zM184.5 11v36h-92V11h92zm-54.752 12.62c-5.208 0-8.036 3.752-8.036 8.624 0 4.732 3.164 8.232 8.036 8.232s7.98-3.528 7.98-8.232c0-4.816-2.8-8.624-7.98-8.624zm37.996-5.824c-5.74 0-8.54 2.912-8.54 6.44 0 4.284 3.444 5.796 6.552 6.524l3.164.7c1.736.392 3.024 1.092 3.024 2.604 0 1.372-1.232 2.24-3.808 2.128-2.24-.084-4.592-1.232-5.964-3.164l-3.584 2.884c2.212 2.828 5.964 4.564 9.52 4.564 6.02 0 8.764-2.8 8.764-6.412 0-3.5-1.848-5.796-6.636-6.944l-2.772-.672c-2.38-.56-3.332-1.26-3.332-2.38 0-1.12 1.26-2.016 3.612-2.016 2.072 0 3.92.952 4.984 2.436l3.724-2.856c-1.96-2.436-4.956-3.836-8.708-3.836zm-58.688.364h-8.316V40h8.288c7.224 0 10.304-5.292 10.304-11.032 0-5.208-3.08-10.808-10.276-10.808zm46.312 0h-14.28V40h15.12v-4.312h-10.64V30.9h8.876v-4.032h-8.876v-4.396h9.8V18.16zm-25.62 9.352c2.128 0 3.584 2.128 3.584 4.732 0 2.576-1.428 4.34-3.584 4.34-2.184 0-3.612-1.792-3.612-4.34 0-2.604 1.428-4.732 3.612-4.732zm-20.356-5.18c3.248 0 5.068 3.612 5.068 6.608 0 3.388-1.624 6.804-5.264 6.804h-3.836V22.332h4.032z"/></svg>